<!DOCTYPE svg PUBLIC "-//W3C//DTD SVG 1.1//EN" "http://www.w3.org/Graphics/SVG/1.1/DTD/svg11.dtd">
<!-- Uploaded to: SVG Repo, www.svgrepo.com, Transformed by: SVG Repo Mixer Tools -->
<svg width="800px" height="800px" viewBox="0 0 20 20" xmlns="http://www.w3.org/2000/svg" fill="#000000">
<g id="SVGRepo_bgCarrier" stroke-width="0"/>
<g id="SVGRepo_tracerCarrier" stroke-linecap="round" stroke-linejoin="round"/>
<g id="SVGRepo_iconCarrier"> <rect x="0" fill="none" width="20" height="20"/> <g> <path d="M18 16V4c0-.55-.45-1-1-1H4c-.55 0-1 .45-1 1v12c0 .55.45 1 1 1h13c.55 0 1-.45 1-1zM8 11h1c.55 0 1 .45 1 1s-.45 1-1 1H8v1.5c0 .28-.22.5-.5.5s-.5-.22-.5-.5V13H6c-.55 0-1-.45-1-1s.45-1 1-1h1V5.5c0-.28.22-.5.5-.5s.5.22.5.5V11zm5-2h-1c-.55 0-1-.45-1-1s.45-1 1-1h1V5.5c0-.28.22-.5.5-.5s.5.22.5.5V7h1c.55 0 1 .45 1 1s-.45 1-1 1h-1v5.5c0 .28-.22.5-.5.5s-.5-.22-.5-.5V9z"/> </g> </g>
</svg>